<svg width="16" height="20" viewBox="0 0 16 20" fill="none" xmlns="http://www.w3.org/2000/svg">
<path d="M7.03268 1.69057C7.29354 0.695295 8.70646 0.695295 8.96732 1.69057L10.1836 6.33096C10.255 6.60352 10.4382 6.83329 10.6879 6.96376L14.8033 9.11365C15.5193 9.48767 15.5193 10.5123 14.8033 10.8863L10.6879 13.0362C10.4382 13.1667 10.255 13.3965 10.1836 13.669L8.96732 18.3094C8.70646 19.3047 7.29354 19.3047 7.03268 18.3094L5.8164 13.669C5.74496 13.3965 5.56184 13.1667 5.3121 13.0362L1.19668 10.8863C0.480715 10.5123 0.480713 9.48768 1.19668 9.11366L5.3121 6.96376C5.56184 6.83329 5.74496 6.60352 5.8164 6.33096L7.03268 1.69057Z" fill="#1678F3"/>
</svg>
