<svg width="167" height="169" viewBox="0 0 167 169" fill="none" xmlns="http://www.w3.org/2000/svg">
<ellipse cx="18.9539" cy="19.0251" rx="18.9539" ry="19.0251" transform="matrix(0.922984 -0.384839 0.381369 0.924423 45.1841 48.1221)" fill="#D0F6FF"/>
<path d="M79.9096 38.1406C84.591 49.4882 79.2326 62.49 67.9619 67.1893C56.6912 71.8886 43.7525 66.5159 39.071 55.1682C34.3896 43.8206 39.748 30.8189 51.0187 26.1195C62.2894 21.4202 75.2281 26.793 79.9096 38.1406Z" stroke="#21B7E2" stroke-width="4"/>
<path d="M53.5098 59.2227C47.3309 57.4869 43.7216 51.0441 45.4482 44.8323" stroke="#21B7E2" stroke-width="4" stroke-linecap="round"/>
<ellipse cx="9.30462" cy="9.33958" rx="9.30462" ry="9.33958" transform="matrix(0.922984 -0.384839 0.381369 0.924423 10.5215 58.0775)" fill="#D0F6FF"/>
<ellipse cx="9.30462" cy="9.33958" rx="9.30462" ry="9.33958" transform="matrix(0.922984 -0.384839 0.381369 0.924423 48.8193 93.078)" fill="#D0F6FF"/>
<ellipse cx="9.30462" cy="9.33958" rx="9.30462" ry="9.33958" transform="matrix(0.922984 -0.384839 0.381369 0.924423 141.871 132.736)" fill="#D0F6FF"/>
<path d="M26.6429 53.6042C28.7015 58.5942 26.3435 64.3044 21.3968 66.3669C16.4501 68.4294 10.7643 66.0731 8.70574 61.0831C6.64715 56.0932 9.0051 50.383 13.9518 48.3204C18.8985 46.2579 24.5843 48.6143 26.6429 53.6042Z" stroke="#21B7E2" stroke-width="4"/>
<path d="M48.1282 83.9969C49.5311 87.3974 47.9232 91.2848 44.5576 92.6881C41.1919 94.0914 37.3193 92.4892 35.9164 89.0886C34.5135 85.6881 36.1214 81.8008 39.4871 80.3974C42.8527 78.9941 46.7253 80.5964 48.1282 83.9969Z" stroke="#21B7E2" stroke-width="4"/>
<path d="M20.0488 63.0994C17.5894 64.1248 14.887 63.2381 14.0127 61.1189" stroke="#21B7E2" stroke-width="4" stroke-linecap="round"/>
</svg>
