<svg width="127" height="115" viewBox="0 0 127 115" fill="none" xmlns="http://www.w3.org/2000/svg">
<ellipse cx="19.0283" cy="18.9506" rx="19.0283" ry="18.9506" transform="matrix(-0.337133 0.941457 -0.940311 -0.340316 73.4395 65.2402)" fill="#D0F6FF"/>
<path d="M56.8859 91.8452C45.4063 87.6905 39.4381 74.9601 43.5775 63.4006C47.7169 51.8411 60.387 45.8562 71.8666 50.0109C83.3462 54.1656 89.3144 66.896 85.175 78.4555C81.0356 90.0149 68.3655 95.9998 56.8859 91.8452Z" stroke="#21B7E2" stroke-width="4"/>
<path d="M59.1602 58.0203C64.5972 54.5965 71.7657 56.2519 75.1714 61.7179" stroke="#21B7E2" stroke-width="4" stroke-linecap="round"/>
<ellipse cx="9.34116" cy="9.30303" rx="9.34116" ry="9.30303" transform="matrix(-0.337133 0.941457 -0.940311 -0.340316 88.9478 26.8392)" fill="#D0F6FF"/>
<ellipse cx="9.34116" cy="9.30303" rx="9.34116" ry="9.30303" transform="matrix(-0.337133 0.941457 -0.940311 -0.340316 37.4204 31.7379)" fill="#D0F6FF"/>
<path d="M81.3796 41.8414C76.3417 40.0181 73.7155 34.4274 75.5359 29.3439C77.3563 24.2604 82.9245 21.6353 87.9624 23.4586C93.0003 25.2819 95.6264 30.8726 93.806 35.9562C91.9857 41.0397 86.4175 43.6647 81.3796 41.8414Z" stroke="#21B7E2" stroke-width="4"/>
<path d="M44.5615 37.3465C41.134 36.106 39.3434 32.3003 40.584 28.8357C41.8246 25.3712 45.6173 23.5861 49.0448 24.8266C52.4723 26.0671 54.2629 29.8728 53.0223 33.3374C51.7816 36.8019 47.989 38.587 44.5615 37.3465Z" stroke="#21B7E2" stroke-width="4"/>
<path d="M108.729 60.028C105.301 58.7875 103.511 54.9818 104.751 51.5172C105.992 48.0527 109.785 46.2676 113.212 47.5081C116.64 48.7486 118.43 52.5543 117.19 56.0189C115.949 59.4834 112.156 61.2685 108.729 60.028Z" stroke="#21B7E2" stroke-width="4"/>
<path d="M78.8395 30.5394C79.7414 28.021 82.2131 26.6094 84.3604 27.3865" stroke="#21B7E2" stroke-width="4" stroke-linecap="round"/>
</svg>
