<svg width="371" height="172" viewBox="0 0 371 172" fill="none" xmlns="http://www.w3.org/2000/svg">
<ellipse cx="21.6419" cy="18.7361" rx="21.6419" ry="18.7361" transform="matrix(0.984913 -0.173052 0.233898 0.972261 111.302 34.9559)" fill="#D0F6FF"/>
<path d="M152.919 31.7862C155.68 43.263 147.041 54.9568 132.87 57.4467C118.699 59.9366 105.362 52.104 102.601 40.6272C99.8401 29.1504 108.479 17.4566 122.65 14.9667C136.821 12.4768 150.158 20.3094 152.919 31.7862Z" stroke="#21B7E2" stroke-width="4"/>
<path d="M118.294 47.1498C111.698 44.3368 109.019 37.4867 112.311 31.8497" stroke="#21B7E2" stroke-width="4" stroke-linecap="round"/>
<ellipse cx="10.6242" cy="9.19772" rx="10.6242" ry="9.19772" transform="matrix(0.984913 -0.173052 0.233898 0.972261 70.04 38.0634)" fill="#D0F6FF"/>
<ellipse cx="10.6242" cy="9.19772" rx="10.6242" ry="9.19772" transform="matrix(0.984913 -0.173052 0.233898 0.972261 105.68 78.7494)" fill="#D0F6FF"/>
<ellipse cx="10.6242" cy="9.19772" rx="10.6242" ry="9.19772" transform="matrix(0.984913 -0.173052 0.233898 0.972261 202.088 134.077)" fill="#D0F6FF"/>
<path d="M89.4762 36.7196C90.6529 41.6113 86.9761 46.8692 80.5105 48.0053C74.0448 49.1413 68.239 45.5495 67.0622 40.6578C65.8854 35.7662 69.5623 30.5083 76.0279 29.3722C82.4935 28.2362 88.2994 31.828 89.4762 36.7196Z" stroke="#21B7E2" stroke-width="4"/>
<path d="M107.144 69.8621C107.925 73.1074 105.488 76.7564 100.949 77.554C96.4098 78.3515 92.4867 75.8199 91.7059 72.5746C90.9252 69.3292 93.3615 65.6802 97.9008 64.8827C102.44 64.0851 106.363 66.6167 107.144 69.8621Z" stroke="#21B7E2" stroke-width="4"/>
<path d="M79.7037 44.6504C76.7071 45.1769 73.8498 43.8243 73.3218 41.6293" stroke="#21B7E2" stroke-width="4" stroke-linecap="round"/>
<ellipse cx="21.4677" cy="19.4658" rx="21.4677" ry="19.4658" transform="matrix(-0.925335 -0.37915 0.489279 -0.872128 59.873 99.7285)" fill="#D0F6FF"/>
<path d="M30.9626 80.5941C37.0289 69.7812 52.4219 64.9587 65.5376 70.3328C78.6532 75.7068 83.8925 88.9832 77.8262 99.7962C71.7599 110.609 56.3669 115.432 43.2513 110.058C30.1356 104.683 24.8963 91.4071 30.9626 80.5941Z" stroke="#21B7E2" stroke-width="4"/>
<path d="M69.8668 86.33C73.167 92.0502 70.4164 98.9737 63.7231 101.794" stroke="#21B7E2" stroke-width="4" stroke-linecap="round"/>
<ellipse cx="10.5387" cy="9.55593" rx="10.5387" ry="9.55593" transform="matrix(-0.925335 -0.37915 0.489279 -0.872128 102.248 118.914)" fill="#D0F6FF"/>
<path d="M85.6338 109.829C88.2571 105.153 95.0377 102.92 100.972 105.352C106.907 107.783 109.116 113.699 106.493 118.375C103.869 123.051 97.0887 125.284 91.1541 122.852C85.2194 120.421 83.0105 114.505 85.6338 109.829Z" stroke="#21B7E2" stroke-width="4"/>
<path d="M61.4754 135.054C63.238 131.912 67.8655 130.327 72.0048 132.023C76.1442 133.719 77.5956 137.795 75.833 140.937C74.0704 144.078 69.443 145.664 65.3036 143.967C61.1642 142.271 59.7129 138.195 61.4754 135.054Z" stroke="#21B7E2" stroke-width="4"/>
<path d="M99.1802 108.546C101.973 109.69 103.306 112.276 102.159 114.322" stroke="#21B7E2" stroke-width="4" stroke-linecap="round"/>
<path d="M134.795 108.234C134.573 108.234 134.293 108.228 133.955 108.216C133.628 108.205 133.284 108.187 132.923 108.164C132.561 108.152 132.217 108.135 131.89 108.111C131.563 108.1 131.289 108.082 131.068 108.059C131.184 107.452 131.348 106.601 131.558 105.504C131.779 104.407 132.042 103.165 132.345 101.776C132.648 100.376 132.969 98.9123 133.308 97.3839C133.646 95.8556 133.99 94.3389 134.34 92.8339C134.702 91.3173 135.046 89.8939 135.373 88.5639C135.699 87.2339 135.991 86.0906 136.248 85.1339C136.959 85.0289 137.823 84.9239 138.837 84.8189C139.864 84.7139 140.908 84.6614 141.97 84.6614C142.425 84.6614 142.898 84.6731 143.388 84.6964C143.878 84.7198 144.344 84.7606 144.788 84.8189C145.009 85.8456 145.231 87.0706 145.453 88.4939C145.686 89.9173 145.908 91.5739 146.118 93.4639C146.339 95.3539 146.555 97.5006 146.765 99.9039C146.987 102.296 147.203 104.985 147.413 107.971C147.144 108.018 146.788 108.059 146.345 108.094C145.902 108.141 145.441 108.176 144.963 108.199C144.496 108.222 144.064 108.234 143.668 108.234C143.644 107.896 143.621 107.452 143.598 106.904C143.574 106.356 143.545 105.749 143.51 105.084C143.475 104.407 143.44 103.736 143.405 103.071C143.37 102.395 143.335 101.771 143.3 101.199C143.265 100.627 143.236 100.161 143.213 99.7989C142.839 99.8106 142.384 99.8281 141.848 99.8514C141.311 99.8748 140.745 99.9098 140.15 99.9564C139.567 99.9914 139.001 100.032 138.453 100.079C137.916 100.126 137.449 100.172 137.053 100.219C136.656 100.266 136.393 100.301 136.265 100.324C136.055 101.316 135.851 102.319 135.653 103.334C135.454 104.337 135.279 105.271 135.128 106.134C134.976 106.986 134.865 107.686 134.795 108.234ZM136.738 97.3139C137.169 97.2206 137.764 97.1331 138.523 97.0514C139.293 96.9698 140.092 96.8998 140.92 96.8414C141.76 96.7831 142.489 96.7423 143.108 96.7189C143.084 96.3573 143.043 95.7798 142.985 94.9864C142.927 94.1931 142.857 93.3239 142.775 92.3789C142.693 91.4339 142.612 90.5414 142.53 89.7014C142.46 88.8498 142.384 88.1906 142.303 87.7239C142.034 87.7239 141.649 87.7414 141.148 87.7764C140.658 87.7998 140.179 87.8348 139.713 87.8814C139.258 87.9164 138.937 87.9456 138.75 87.9689C138.68 88.2723 138.575 88.7331 138.435 89.3514C138.295 89.9581 138.132 90.6873 137.945 91.5389C137.758 92.3789 137.56 93.2948 137.35 94.2864C137.152 95.2664 136.948 96.2756 136.738 97.3139ZM163.952 104.716C163.777 105.276 163.509 105.866 163.147 106.484C162.786 107.091 162.284 107.604 161.642 108.024C161.001 108.456 160.172 108.671 159.157 108.671C157.851 108.671 156.812 108.386 156.042 107.814C155.284 107.242 154.741 106.49 154.415 105.556C154.088 104.623 153.925 103.608 153.925 102.511C153.925 101.94 153.931 101.263 153.942 100.481C153.966 99.6998 153.989 98.8889 154.012 98.0489C154.036 97.2089 154.059 96.3981 154.082 95.6164C154.117 94.8231 154.146 94.1289 154.17 93.5339C154.193 92.9273 154.211 92.4781 154.222 92.1864C153.079 92.3031 152.087 92.4314 151.247 92.5714C150.419 92.6998 149.888 92.7989 149.655 92.8689C149.585 92.4956 149.526 92.1048 149.48 91.6964C149.445 91.2764 149.416 90.8973 149.392 90.5589C149.381 90.2206 149.375 89.9931 149.375 89.8764C150.028 89.7831 150.786 89.6839 151.65 89.5789C152.525 89.4739 153.388 89.3923 154.24 89.3339C154.251 88.8789 154.257 88.3189 154.257 87.6539C154.257 86.9773 154.257 86.3414 154.257 85.7464C154.246 85.2448 154.222 84.7606 154.187 84.2939C154.152 83.8156 154.123 83.4189 154.1 83.1039L157.39 82.9114C157.413 83.0864 157.436 83.5064 157.46 84.1714C157.495 84.8248 157.512 85.6181 157.512 86.5514C157.512 86.9014 157.512 87.3273 157.512 87.8289C157.512 88.3189 157.512 88.7564 157.512 89.1414C157.862 89.1181 158.294 89.0948 158.807 89.0714C159.321 89.0481 159.735 89.0364 160.05 89.0364C160.598 89.0248 161.123 89.0189 161.625 89.0189C162.126 89.0189 162.558 89.0248 162.92 89.0364C163.281 89.0481 163.503 89.0598 163.585 89.0714C163.643 89.3864 163.678 89.8239 163.69 90.3839C163.713 90.9439 163.725 91.4106 163.725 91.7839C163.608 91.7723 163.206 91.7664 162.517 91.7664C161.841 91.7548 161.17 91.7548 160.505 91.7664C160.026 91.7781 159.501 91.8014 158.93 91.8364C158.358 91.8598 157.868 91.8831 157.46 91.9064C157.448 92.2098 157.425 92.6589 157.39 93.2539C157.366 93.8489 157.343 94.5198 157.32 95.2664C157.296 96.0014 157.273 96.7539 157.25 97.5239C157.226 98.2823 157.209 98.9939 157.197 99.6589C157.186 100.312 157.18 100.843 157.18 101.251C157.18 101.986 157.221 102.686 157.302 103.351C157.396 104.016 157.606 104.565 157.932 104.996C158.271 105.416 158.801 105.626 159.525 105.626C160.015 105.626 160.411 105.451 160.715 105.101C161.018 104.751 161.251 104.349 161.415 103.894C161.59 103.439 161.718 103.06 161.8 102.756C161.905 102.873 162.056 103.031 162.255 103.229C162.465 103.416 162.686 103.614 162.92 103.824C163.165 104.034 163.381 104.221 163.567 104.384C163.766 104.547 163.894 104.658 163.952 104.716ZM168.919 108.129C168.826 107.289 168.744 106.286 168.674 105.119C168.604 103.952 168.54 102.71 168.482 101.391C168.424 100.073 168.377 98.7489 168.342 97.4189C168.307 96.0889 168.278 94.8289 168.254 93.6389C168.231 92.4373 168.219 91.3873 168.219 90.4889C168.394 90.4306 168.628 90.3723 168.919 90.3139C169.211 90.2556 169.52 90.2031 169.847 90.1564C170.174 90.1098 170.483 90.0748 170.774 90.0514C171.066 90.0164 171.305 89.9989 171.492 89.9989C171.504 90.1856 171.515 90.4598 171.527 90.8214C171.539 91.1714 171.55 91.5448 171.562 91.9414C171.585 92.3381 171.597 92.6998 171.597 93.0264C171.609 93.3414 171.614 93.5631 171.614 93.6914C171.708 93.4464 171.889 93.1139 172.157 92.6939C172.437 92.2739 172.816 91.8481 173.294 91.4164C173.784 90.9848 174.391 90.6231 175.114 90.3314C175.838 90.0398 176.689 89.8939 177.669 89.8939C178.556 89.8939 179.303 90.0806 179.909 90.4539C180.528 90.8273 181.029 91.3173 181.414 91.9239C181.811 92.5189 182.109 93.1664 182.307 93.8664C182.424 94.2748 182.505 94.6831 182.552 95.0914C182.61 95.4998 182.651 95.8964 182.674 96.2814C182.873 95.1731 183.246 94.1173 183.794 93.1139C184.354 92.0989 185.107 91.2706 186.052 90.6289C187.009 89.9873 188.175 89.6664 189.552 89.6664C190.824 89.6664 191.868 89.9289 192.684 90.4539C193.501 90.9789 194.137 91.7198 194.592 92.6764C195.047 93.6331 195.362 94.7706 195.537 96.0889C195.724 97.3956 195.817 98.8423 195.817 100.429C195.817 101.269 195.794 102.161 195.747 103.106C195.712 104.051 195.659 104.973 195.589 105.871C195.531 106.758 195.467 107.551 195.397 108.251C195.117 108.286 194.831 108.31 194.539 108.321C194.248 108.345 193.956 108.356 193.664 108.356C193.384 108.356 193.087 108.345 192.772 108.321C192.469 108.31 192.159 108.292 191.844 108.269C192.078 106.542 192.259 104.944 192.387 103.474C192.527 102.004 192.597 100.691 192.597 99.5364C192.597 97.3314 192.334 95.6573 191.809 94.5139C191.284 93.3706 190.421 92.7989 189.219 92.7989C188.134 92.7989 187.259 93.1198 186.594 93.7614C185.941 94.4031 185.439 95.2664 185.089 96.3514C184.751 97.4364 184.518 98.6614 184.389 100.026C184.261 101.391 184.185 102.797 184.162 104.244C184.15 104.862 184.139 105.504 184.127 106.169C184.115 106.822 184.109 107.476 184.109 108.129C183.934 108.141 183.701 108.152 183.409 108.164C183.129 108.187 182.844 108.199 182.552 108.199C182.214 108.199 181.875 108.187 181.537 108.164C181.199 108.152 180.936 108.129 180.749 108.094C180.761 107.312 180.767 106.56 180.767 105.836C180.779 105.113 180.784 104.39 180.784 103.666C180.784 102.301 180.738 100.983 180.644 99.7114C180.563 98.4398 180.394 97.2964 180.137 96.2814C179.88 95.2548 179.489 94.4381 178.964 93.8314C178.439 93.2248 177.739 92.9214 176.864 92.9214C176.211 92.9214 175.587 93.0906 174.992 93.4289C174.409 93.7673 173.884 94.1931 173.417 94.7064C172.95 95.2081 172.577 95.7389 172.297 96.2989C172.017 96.8473 171.854 97.3314 171.807 97.7514C171.877 99.6181 171.959 101.292 172.052 102.774C172.157 104.256 172.25 105.469 172.332 106.414C172.425 107.347 172.489 107.942 172.524 108.199C172.419 108.211 172.233 108.222 171.964 108.234C171.696 108.246 171.457 108.251 171.247 108.251C170.804 108.251 170.36 108.24 169.917 108.216C169.485 108.193 169.153 108.164 168.919 108.129ZM207.532 108.339C206.074 108.339 204.749 108.146 203.559 107.761C202.381 107.365 201.442 106.735 200.742 105.871C200.042 104.996 199.692 103.836 199.692 102.389C199.692 101.001 200.083 99.8514 200.864 98.9414C201.646 98.0314 202.702 97.3606 204.032 96.9289C205.374 96.4856 206.873 96.2639 208.529 96.2639C209.299 96.2639 210.052 96.3223 210.787 96.4389C211.522 96.5439 212.158 96.6723 212.694 96.8239C213.231 96.9639 213.593 97.0748 213.779 97.1564C213.744 96.7714 213.674 96.3806 213.569 95.9839C213.476 95.5756 213.33 95.2198 213.132 94.9164C212.689 94.1348 212.041 93.4931 211.189 92.9914C210.349 92.4781 209.294 92.2214 208.022 92.2214C206.68 92.2214 205.543 92.5131 204.609 93.0964C203.676 93.6681 202.976 94.3506 202.509 95.1439L199.674 93.2714C200.188 92.5131 200.864 91.8423 201.704 91.2589C202.544 90.6756 203.513 90.2148 204.609 89.8764C205.706 89.5381 206.884 89.3689 208.144 89.3689C210.104 89.3689 211.726 89.7423 213.009 90.4889C214.293 91.2356 215.232 92.2214 215.827 93.4464C216.13 94.0648 216.369 94.7414 216.544 95.4764C216.719 96.2114 216.824 97.1214 216.859 98.2064C216.883 99.3498 216.906 100.324 216.929 101.129C216.964 101.934 216.999 102.628 217.034 103.211C217.093 103.97 217.209 104.46 217.384 104.681C217.559 104.903 217.81 105.014 218.137 105.014C218.51 105.014 218.825 104.856 219.082 104.541C219.339 104.215 219.484 103.76 219.519 103.176L221.199 105.031C221.129 106.011 220.785 106.758 220.167 107.271C219.549 107.785 218.825 108.041 217.997 108.041C217.344 108.041 216.766 107.919 216.264 107.674C215.774 107.417 215.384 107.091 215.092 106.694C214.8 106.297 214.631 105.889 214.584 105.469C214.351 105.901 213.896 106.338 213.219 106.781C212.554 107.225 211.732 107.598 210.752 107.901C209.784 108.193 208.71 108.339 207.532 108.339ZM208.162 105.591C208.92 105.591 209.661 105.475 210.384 105.241C211.108 105.008 211.773 104.699 212.379 104.314C212.998 103.929 213.505 103.503 213.902 103.036C213.89 102.313 213.89 101.671 213.902 101.111C213.914 100.54 213.931 100.015 213.954 99.5364C213.616 99.4198 212.969 99.2681 212.012 99.0814C211.055 98.8831 209.976 98.7839 208.774 98.7839C207.736 98.7839 206.791 98.9239 205.939 99.2039C205.099 99.4723 204.429 99.8631 203.927 100.376C203.437 100.89 203.192 101.508 203.192 102.231C203.192 103.106 203.402 103.789 203.822 104.279C204.254 104.757 204.843 105.096 205.589 105.294C206.336 105.492 207.194 105.591 208.162 105.591ZM234.292 107.744C234.339 107.102 234.374 106.221 234.397 105.101C234.42 103.981 234.438 102.727 234.45 101.339C234.473 99.9389 234.485 98.4923 234.485 96.9989C234.485 95.4939 234.473 94.0123 234.45 92.5539C234.438 91.0956 234.42 89.7481 234.397 88.5114C234.374 87.2631 234.339 86.2248 234.292 85.3964C234.49 85.3731 234.794 85.3439 235.202 85.3089C235.622 85.2739 236.042 85.2564 236.462 85.2564C236.742 85.2564 237.045 85.2681 237.372 85.2914C237.71 85.3148 237.944 85.3381 238.072 85.3614C238.107 86.1898 238.136 87.1873 238.16 88.3539C238.183 89.5089 238.195 90.7573 238.195 92.0989C238.206 93.4289 238.2 94.7823 238.177 96.1589C238.154 97.5356 238.13 98.8598 238.107 100.131C238.095 101.006 238.078 101.806 238.055 102.529C238.031 103.241 238.002 103.812 237.967 104.244C238.772 104.197 239.682 104.151 240.697 104.104C241.724 104.057 242.78 104.016 243.865 103.981C244.95 103.946 246 103.929 247.015 103.929C247.026 104.151 247.038 104.466 247.05 104.874C247.061 105.282 247.067 105.708 247.067 106.151C247.067 106.595 247.061 106.986 247.05 107.324C245.743 107.452 244.489 107.557 243.287 107.639C242.097 107.709 240.965 107.756 239.892 107.779C238.9 107.814 237.938 107.826 237.005 107.814C236.083 107.802 235.179 107.779 234.292 107.744ZM257.776 108.339C256.318 108.339 254.993 108.146 253.803 107.761C252.625 107.365 251.686 106.735 250.986 105.871C250.286 104.996 249.936 103.836 249.936 102.389C249.936 101.001 250.327 99.8514 251.108 98.9414C251.89 98.0314 252.946 97.3606 254.276 96.9289C255.618 96.4856 257.117 96.2639 258.773 96.2639C259.543 96.2639 260.296 96.3223 261.031 96.4389C261.766 96.5439 262.402 96.6723 262.938 96.8239C263.475 96.9639 263.837 97.0748 264.023 97.1564C263.988 96.7714 263.918 96.3806 263.813 95.9839C263.72 95.5756 263.574 95.2198 263.376 94.9164C262.933 94.1348 262.285 93.4931 261.433 92.9914C260.593 92.4781 259.538 92.2214 258.266 92.2214C256.924 92.2214 255.787 92.5131 254.853 93.0964C253.92 93.6681 253.22 94.3506 252.753 95.1439L249.918 93.2714C250.432 92.5131 251.108 91.8423 251.948 91.2589C252.788 90.6756 253.757 90.2148 254.853 89.8764C255.95 89.5381 257.128 89.3689 258.388 89.3689C260.348 89.3689 261.97 89.7423 263.253 90.4889C264.537 91.2356 265.476 92.2214 266.071 93.4464C266.374 94.0648 266.613 94.7414 266.788 95.4764C266.963 96.2114 267.068 97.1214 267.103 98.2064C267.127 99.3498 267.15 100.324 267.173 101.129C267.208 101.934 267.243 102.628 267.278 103.211C267.337 103.97 267.453 104.46 267.628 104.681C267.803 104.903 268.054 105.014 268.381 105.014C268.754 105.014 269.069 104.856 269.326 104.541C269.583 104.215 269.728 103.76 269.763 103.176L271.443 105.031C271.373 106.011 271.029 106.758 270.411 107.271C269.793 107.785 269.069 108.041 268.241 108.041C267.588 108.041 267.01 107.919 266.508 107.674C266.018 107.417 265.628 107.091 265.336 106.694C265.044 106.297 264.875 105.889 264.828 105.469C264.595 105.901 264.14 106.338 263.463 106.781C262.798 107.225 261.976 107.598 260.996 107.901C260.028 108.193 258.954 108.339 257.776 108.339ZM258.406 105.591C259.164 105.591 259.905 105.475 260.628 105.241C261.352 105.008 262.017 104.699 262.623 104.314C263.242 103.929 263.749 103.503 264.146 103.036C264.134 102.313 264.134 101.671 264.146 101.111C264.158 100.54 264.175 100.015 264.198 99.5364C263.86 99.4198 263.213 99.2681 262.256 99.0814C261.299 98.8831 260.22 98.7839 259.018 98.7839C257.98 98.7839 257.035 98.9239 256.183 99.2039C255.343 99.4723 254.673 99.8631 254.171 100.376C253.681 100.89 253.436 101.508 253.436 102.231C253.436 103.106 253.646 103.789 254.066 104.279C254.498 104.757 255.087 105.096 255.833 105.294C256.58 105.492 257.438 105.591 258.406 105.591ZM285.057 90.4714C285.232 90.4248 285.483 90.3839 285.81 90.3489C286.148 90.3139 286.486 90.2964 286.825 90.2964C287.105 90.2964 287.408 90.3081 287.735 90.3314C288.073 90.3431 288.341 90.3664 288.54 90.4014C288.726 91.5331 288.884 92.6881 289.012 93.8664C289.14 95.0448 289.205 96.2056 289.205 97.3489C289.205 98.9123 289.07 100.388 288.802 101.776C288.534 103.165 288.09 104.39 287.472 105.451C286.865 106.501 286.043 107.33 285.005 107.936C283.978 108.543 282.7 108.846 281.172 108.846C279.504 108.846 278.133 108.52 277.06 107.866C275.986 107.201 275.152 106.286 274.557 105.119C273.962 103.941 273.542 102.587 273.297 101.059C273.064 99.5306 272.947 97.8973 272.947 96.1589C272.947 95.0973 272.982 94.0239 273.052 92.9389C273.122 91.8539 273.198 90.7923 273.28 89.7539C273.49 89.7423 273.752 89.7364 274.067 89.7364C274.394 89.7364 274.685 89.7423 274.942 89.7539C275.304 89.7773 275.66 89.8123 276.01 89.8589C276.371 89.8939 276.669 89.9464 276.902 90.0164C276.785 91.0664 276.692 92.1048 276.622 93.1314C276.552 94.1581 276.517 95.1498 276.517 96.1064C276.517 98.1598 276.686 99.8981 277.025 101.321C277.375 102.745 277.894 103.824 278.582 104.559C279.282 105.294 280.157 105.661 281.207 105.661C282.187 105.661 283.004 105.329 283.657 104.664C284.322 103.999 284.824 103.036 285.162 101.776C285.5 100.505 285.67 98.9589 285.67 97.1389C285.67 96.1006 285.617 95.0156 285.512 93.8839C285.407 92.7406 285.255 91.6031 285.057 90.4714ZM297.53 108.199C297.308 108.199 297.04 108.199 296.725 108.199C296.41 108.211 296.095 108.211 295.78 108.199C295.488 108.187 295.156 108.17 294.782 108.146C294.409 108.135 294.135 108.117 293.96 108.094C294.077 107.126 294.176 106.07 294.257 104.926C294.351 103.771 294.427 102.476 294.485 101.041C294.543 99.5948 294.59 97.9556 294.625 96.1239C294.66 94.2806 294.677 92.1864 294.677 89.8414C294.957 89.7948 295.29 89.7598 295.675 89.7364C296.072 89.7014 296.474 89.6839 296.882 89.6839C297.139 89.6839 297.396 89.6898 297.652 89.7014C297.921 89.7131 298.154 89.7364 298.352 89.7714C298.364 89.8998 298.37 90.1331 298.37 90.4714C298.382 90.8098 298.382 91.1831 298.37 91.5914C298.37 91.9998 298.37 92.3614 298.37 92.6764C298.802 92.1981 299.414 91.7081 300.207 91.2064C301.001 90.7048 301.887 90.2848 302.867 89.9464C303.847 89.5964 304.833 89.4214 305.825 89.4214C307.598 89.4214 308.946 89.7773 309.867 90.4889C310.789 91.1889 311.413 92.2273 311.74 93.6039C312.078 94.9806 312.247 96.6898 312.247 98.7314C312.247 99.5248 312.224 100.423 312.177 101.426C312.142 102.43 312.078 103.491 311.985 104.611C311.903 105.731 311.792 106.869 311.652 108.024C311.489 108.047 311.238 108.065 310.9 108.076C310.573 108.1 310.223 108.111 309.85 108.111C309.477 108.111 309.121 108.106 308.782 108.094C308.444 108.082 308.176 108.059 307.977 108.024C308.129 107.032 308.269 106 308.397 104.926C308.526 103.841 308.631 102.768 308.712 101.706C308.794 100.633 308.835 99.6239 308.835 98.6789C308.835 97.4656 308.742 96.4039 308.555 95.4939C308.38 94.5839 308.024 93.8781 307.487 93.3764C306.962 92.8748 306.187 92.6239 305.16 92.6239C304.098 92.6239 303.124 92.7989 302.237 93.1489C301.351 93.4989 300.575 93.9131 299.91 94.3914C299.257 94.8698 298.726 95.2956 298.317 95.6689C298.271 97.6406 298.201 99.4489 298.107 101.094C298.014 102.739 297.915 104.168 297.81 105.381C297.705 106.595 297.612 107.534 297.53 108.199ZM330.456 107.919C330.456 107.721 330.45 107.423 330.438 107.026C330.426 106.618 330.421 106.221 330.421 105.836C330.421 105.44 330.421 105.148 330.421 104.961C330.339 105.101 330.158 105.329 329.878 105.644C329.598 105.959 329.201 106.291 328.688 106.641C328.186 106.991 327.551 107.289 326.781 107.534C326.011 107.779 325.095 107.901 324.033 107.901C322.47 107.901 321.134 107.563 320.026 106.886C318.917 106.198 318.071 105.241 317.488 104.016C316.916 102.791 316.631 101.374 316.631 99.7639C316.631 98.2589 316.922 96.8589 317.506 95.5639C318.089 94.2573 318.964 93.2014 320.131 92.3964C321.297 91.5914 322.756 91.1889 324.506 91.1889C325.556 91.1889 326.489 91.3056 327.306 91.5389C328.134 91.7723 328.822 92.0523 329.371 92.3789C329.931 92.6939 330.327 92.9739 330.561 93.2189C330.572 92.7056 330.601 92.0698 330.648 91.3114C330.706 90.5531 330.765 89.7481 330.823 88.8964C330.881 88.0448 330.94 87.2223 330.998 86.4289C331.056 85.6239 331.109 84.9181 331.156 84.3114C331.214 83.7048 331.255 83.2789 331.278 83.0339C331.745 83.0339 332.258 83.0573 332.818 83.1039C333.39 83.1506 333.88 83.2148 334.288 83.2964C334.078 86.0264 333.915 88.7448 333.798 91.4514C333.693 94.1464 333.623 96.8706 333.588 99.6239C333.553 102.366 333.536 105.16 333.536 108.006C333.361 108.006 333.063 108.001 332.643 107.989C332.235 107.989 331.821 107.983 331.401 107.971C330.981 107.948 330.666 107.931 330.456 107.919ZM324.873 104.681C325.678 104.681 326.396 104.565 327.026 104.331C327.656 104.086 328.192 103.795 328.636 103.456C329.079 103.106 329.441 102.762 329.721 102.424C330.012 102.074 330.216 101.794 330.333 101.584C330.333 101.316 330.333 100.925 330.333 100.411C330.345 99.8864 330.351 99.3381 330.351 98.7664C330.362 98.1831 330.368 97.6406 330.368 97.1389C330.38 96.6373 330.391 96.2639 330.403 96.0189C330.135 95.7739 329.732 95.5056 329.196 95.2139C328.671 94.9223 328.052 94.6714 327.341 94.4614C326.629 94.2514 325.865 94.1464 325.048 94.1464C323.38 94.1464 322.102 94.6364 321.216 95.6164C320.341 96.5848 319.903 97.9031 319.903 99.5714C319.903 101.251 320.329 102.523 321.181 103.386C322.044 104.25 323.275 104.681 324.873 104.681ZM341.311 92.4664C341.661 91.8714 342.169 91.3289 342.834 90.8389C343.51 90.3489 344.269 89.9581 345.109 89.6664C345.96 89.3748 346.812 89.2289 347.664 89.2289C348.212 89.2289 348.766 89.2814 349.326 89.3864C349.886 89.4798 350.324 89.6139 350.639 89.7889L349.939 93.3064C349.659 93.1898 349.297 93.0673 348.854 92.9389C348.422 92.7989 347.885 92.7289 347.244 92.7289C346.555 92.7289 345.867 92.8573 345.179 93.1139C344.502 93.3589 343.878 93.6973 343.306 94.1289C342.734 94.5606 342.256 95.0564 341.871 95.6164C342.034 96.4331 342.192 97.4306 342.344 98.6089C342.507 99.7873 342.653 100.995 342.781 102.231C342.909 103.468 343.014 104.6 343.096 105.626C343.178 106.641 343.219 107.406 343.219 107.919C342.717 107.966 342.104 107.995 341.381 108.006C340.658 108.018 339.993 108.018 339.386 108.006C339.386 106.921 339.363 105.778 339.316 104.576C339.269 103.363 339.194 102.126 339.089 100.866C338.995 99.5948 338.873 98.3289 338.721 97.0689C338.569 95.8089 338.389 94.5898 338.179 93.4114C337.98 92.2214 337.753 91.0956 337.496 90.0339C337.811 89.9406 338.179 89.8473 338.599 89.7539C339.03 89.6606 339.427 89.5789 339.789 89.5089C340.15 89.4389 340.395 89.3981 340.524 89.3864C340.675 89.7831 340.833 90.2964 340.996 90.9264C341.159 91.5564 341.264 92.0698 341.311 92.4664ZM359.088 117.211C357.455 117.211 356.002 116.955 354.73 116.441C353.459 115.928 352.467 115.421 351.755 114.919C351.837 114.697 351.977 114.394 352.175 114.009C352.374 113.636 352.584 113.262 352.805 112.889C353.027 112.516 353.214 112.23 353.365 112.031C353.68 112.265 354.147 112.539 354.765 112.854C355.384 113.181 356.084 113.466 356.865 113.711C357.647 113.956 358.435 114.079 359.228 114.079C360.266 114.079 361.147 113.805 361.87 113.256C362.594 112.72 363.177 111.985 363.62 111.051C364.064 110.13 364.385 109.086 364.583 107.919C364.793 106.752 364.904 105.551 364.915 104.314C364.717 104.746 364.402 105.195 363.97 105.661C363.55 106.116 362.99 106.501 362.29 106.816C361.59 107.12 360.733 107.271 359.718 107.271C358.05 107.271 356.76 106.787 355.85 105.819C354.94 104.839 354.305 103.509 353.943 101.829C353.593 100.137 353.418 98.2239 353.418 96.0889C353.418 95.2723 353.435 94.4264 353.47 93.5514C353.505 92.6764 353.546 91.7723 353.593 90.8389C353.745 90.8039 353.966 90.7806 354.258 90.7689C354.55 90.7573 354.859 90.7514 355.185 90.7514C355.57 90.7514 355.938 90.7631 356.288 90.7864C356.65 90.7981 356.895 90.8214 357.023 90.8564C357 90.9964 356.965 91.3289 356.918 91.8539C356.871 92.3789 356.825 93.0148 356.778 93.7614C356.731 94.5081 356.708 95.2781 356.708 96.0714C356.708 97.0048 356.749 97.9439 356.83 98.8889C356.912 99.8223 357.07 100.68 357.303 101.461C357.548 102.243 357.904 102.873 358.37 103.351C358.837 103.818 359.461 104.051 360.243 104.051C361.118 104.051 361.87 103.801 362.5 103.299C363.13 102.797 363.632 102.062 364.005 101.094C364.39 100.114 364.635 98.9123 364.74 97.4889C364.787 96.9406 364.822 96.3281 364.845 95.6514C364.88 94.9631 364.91 94.3039 364.933 93.6739C364.956 93.0323 364.968 92.4898 364.968 92.0464C364.98 91.5914 364.98 91.3173 364.968 91.2239C365.155 91.2006 365.347 91.1831 365.545 91.1714C365.744 91.1598 365.942 91.1539 366.14 91.1539C366.852 91.1539 367.5 91.2239 368.083 91.3639C368.13 92.3439 368.153 93.5106 368.153 94.8639C368.153 95.9723 368.135 97.2089 368.1 98.5739C368.065 99.9273 368.013 101.321 367.943 102.756C367.885 104.191 367.82 105.603 367.75 106.991C367.645 108.963 367.26 110.713 366.595 112.241C365.942 113.781 364.991 114.995 363.743 115.881C362.506 116.768 360.955 117.211 359.088 117.211Z" fill="#21B7E2"/>
</svg>
